<?xml version="1.0" encoding="utf-8"?>
<!-- Generator: Adobe Illustrator 26.2.1, SVG Export Plug-In . SVG Version: 6.00 Build 0)  -->
<svg version="1.1" id="Calque_1" xmlns="http://www.w3.org/2000/svg" xmlns:xlink="http://www.w3.org/1999/xlink" x="0px" y="0px"
	 viewBox="0 0 408 140" style="enable-background:new 0 0 408 140;" xml:space="preserve">
<style type="text/css">
	.st0{fill:none;stroke:#D0001D;stroke-width:13;stroke-miterlimit:10;}
	.st1{fill:none;stroke:#15375B;stroke-width:13;stroke-miterlimit:10;}
	.st2{fill:none;stroke:#1D1D1B;stroke-width:13;stroke-miterlimit:10;}
	.st3{enable-background:new    ;}
	.st4{fill:#15375B;}
</style>
<g>
	<path class="st0" d="M102,122.9c-7.4-4.2-25.7-34.7-38.7-34.7"/>
	<circle class="st1" cx="71.6" cy="70" r="61"/>
	<path class="st1" d="M84.2,86.9c8.4-9,13.9-14.4,13.9-25.9c0-13.6-12.9-24.3-26.5-24.3s-24.7,11-24.7,24.7"/>
	<line class="st1" x1="46.9" y1="61.4" x2="46.9" y2="125.8"/>
	<path class="st2" d="M102,122.9"/>
	<path class="st2" d="M63.3,88.2"/>
	<g>
		<g class="st3">
			<path class="st4" d="M162.8,68.4V46.4h8.4c5.2,0,7.9,2.5,7.9,6.8c0,3.1-1.4,5.3-3.9,6.2l4,8.9H175l-3.6-8.2h-4.7v8.2H162.8z
				 M166.6,56.8h4.6c2.7,0,3.9-1.5,3.9-3.5c0-2-1.2-3.4-3.9-3.4h-4.6V56.8z"/>
			<path class="st4" d="M188.8,53.1c4.6,0,7.7,3.2,7.7,7.8c0,4.6-3.1,7.8-7.7,7.8s-7.7-3.2-7.7-7.8C181,56.4,184.1,53.1,188.8,53.1z
				 M188.8,65.5c2.4,0,4-1.9,4-4.5c0-2.7-1.6-4.5-4-4.5c-2.4,0-4,1.9-4,4.5C184.7,63.6,186.3,65.5,188.8,65.5z"/>
			<path class="st4" d="M199.6,68.4V53.5h3.4l0.2,1.7c0.9-1.3,2.4-2.1,4.2-2.1c2.5,0,4.1,1.1,4.9,2.8c0.7-1.7,2.5-2.8,4.7-2.8
				c3.6,0,5.5,2.2,5.5,5.6v9.7h-3.5v-8.8c0-2.1-1.1-3.2-2.9-3.2c-1.7,0-3.1,1.1-3.1,3.6v8.5h-3.6v-8.8c0-2.1-1.1-3.2-2.9-3.2
				s-3.2,1.1-3.2,3.5v8.5H199.6z"/>
			<path class="st4" d="M225.6,64.1c0-2.9,2.2-4.4,5.5-4.7l4.2-0.3v-0.3c0-2-1.3-2.8-3.1-2.8c-2,0-3.2,0.9-3.2,2.5H226
				c0-3.2,2.6-5.3,6.4-5.3c4.2,0,6.5,2.3,6.5,6.3v9h-3.2l-0.3-2.2c-0.6,1.5-2.4,2.6-4.7,2.6C227.5,68.8,225.6,66.9,225.6,64.1z
				 M235.3,62.4v-0.8l-3.1,0.3c-2.2,0.2-2.9,0.9-2.9,2.1c0,1.3,0.9,2,2.5,2C233.4,66,235.3,65.1,235.3,62.4z"/>
			<path class="st4" d="M242.7,68.4V53.5h3.4l0.3,1.9c1-1.5,2.7-2.4,4.7-2.4c3.9,0,5.6,2.5,5.6,6.2v9.1h-3.6v-8.2
				c0-3.2-1.9-3.7-3.1-3.7c-1.6,0-3.6,0.9-3.6,4v8H242.7z"/>
			<path class="st4" d="M275.5,53.1c4.6,0,7.7,3.2,7.7,7.8c0,4.6-3.1,7.8-7.7,7.8s-7.7-3.2-7.7-7.8
				C267.8,56.4,270.8,53.1,275.5,53.1z M275.5,65.5c2.4,0,4-1.9,4-4.5c0-2.7-1.6-4.5-4-4.5s-4,1.9-4,4.5
				C271.5,63.6,273.1,65.5,275.5,65.5z"/>
			<path class="st4" d="M281.6,72.4h1.7c1.6,0,2.5-0.6,2.5-2.4l0-16.4h3.7v16c0,5-3.5,6.9-7.8,5.7V72.4z M285.4,48.3
				c0-1.2,1-2.2,2.2-2.2c1.2,0,2.2,1,2.2,2.2c0,1.2-1,2.2-2.2,2.2C286.4,50.5,285.4,49.6,285.4,48.3z"/>
			<path class="st4" d="M293.5,62.8v-9.3h3.7v8c0,3.1,1.3,4,3.1,4c2.4,0,3.4-1.5,3.4-4.2v-7.8h3.7v14.8H304l-0.2-1.9
				c-0.9,1.4-2.8,2.3-4.8,2.3C295.4,68.8,293.5,66.4,293.5,62.8z"/>
			<path class="st4" d="M310.6,64.1c0-2.9,2.2-4.4,5.5-4.7l4.2-0.3v-0.3c0-2-1.3-2.8-3.1-2.8c-2,0-3.2,0.9-3.2,2.5H311
				c0-3.2,2.6-5.3,6.4-5.3c4.2,0,6.5,2.3,6.5,6.3v9h-3.2l-0.3-2.2c-0.6,1.5-2.4,2.6-4.7,2.6C312.5,68.8,310.6,66.9,310.6,64.1z
				 M320.4,62.4v-0.8l-3.1,0.3c-2.2,0.2-2.9,0.9-2.9,2.1c0,1.3,0.9,2,2.5,2C318.4,66,320.4,65.1,320.4,62.4z"/>
			<path class="st4" d="M337,56.7h-1.4c-2.6,0-4.2,1.6-4.2,4.5v7.2h-3.7V53.6h3.4l0.2,1.7c0.9-1.8,3.5-2.3,5.7-1.8V56.7z"/>
			<path class="st4" d="M338.6,64.1c0-2.9,2.2-4.4,5.5-4.7l4.2-0.3v-0.3c0-2-1.3-2.8-3.1-2.8c-2,0-3.2,0.9-3.1,2.5H339
				c0-3.2,2.6-5.3,6.5-5.3c4.2,0,6.4,2.3,6.4,6.3v9h-3.2l-0.3-2.2c-0.6,1.5-2.4,2.6-4.7,2.6C340.5,68.8,338.6,66.9,338.6,64.1z
				 M348.4,62.4v-0.8l-3.1,0.3c-2.2,0.2-2.9,0.9-2.9,2.1c0,1.3,0.9,2,2.5,2C346.5,66,348.4,65.1,348.4,62.4z"/>
		</g>
		<g class="st3">
			<path class="st4" d="M161.6,93.9V83.1h4.2c2.4,0,3.7,1.2,3.7,3.3c0,1.5-0.8,2.7-2.1,3.1l2.1,4.5h-1.7l-1.9-4.3h-2.8v4.3H161.6z
				 M163.1,88.3h2.7c1.4,0,2.2-0.8,2.2-1.9c0-1.2-0.8-2-2.2-2h-2.7V88.3z"/>
			<path class="st4" d="M176,94.1c-3.1,0-5.2-2.3-5.2-5.6c0-3.3,2.1-5.6,5.2-5.6s5.2,2.4,5.2,5.6S179.1,94.1,176,94.1z M176,84.3
				c-2.2,0-3.7,1.7-3.7,4.2s1.4,4.2,3.7,4.2c2.2,0,3.7-1.7,3.7-4.2S178.2,84.3,176,84.3z"/>
			<path class="st4" d="M183.1,93.9V83.1h3.6c3.2,0,5.4,2.2,5.4,5.4c0,3.2-2.2,5.4-5.4,5.4H183.1z M184.6,84.5v8.1h2
				c2.4,0,3.9-1.6,3.9-4s-1.6-4-3.9-4H184.6z"/>
			<path class="st4" d="M192.4,93.9l4-10.8h1.6l4,10.8h-1.5l-1-2.7h-4.6l-1,2.7H192.4z M195.3,90h3.7l-1.6-4.6
				c-0.1-0.2-0.2-0.5-0.2-0.6c0,0.2-0.1,0.4-0.2,0.6L195.3,90z"/>
		</g>
	</g>
</g>
</svg>
