<?xml version="1.0" encoding="utf-8"?>
<!-- Generator: Adobe Illustrator 26.2.1, SVG Export Plug-In . SVG Version: 6.00 Build 0)  -->
<svg version="1.1" id="Calque_1" xmlns="http://www.w3.org/2000/svg" xmlns:xlink="http://www.w3.org/1999/xlink" x="0px" y="0px"
	 viewBox="0 0 64 64" style="enable-background:new 0 0 64 64;" xml:space="preserve">
<style type="text/css">
	.st0{fill:#FFFFFF;}
</style>
<path class="st0" d="M57.4,16c-7.6-1.9-12.1-6.4-13.7-13.7c-0.2-0.8-0.2-1.5-0.2-2.3l0,0c-3.7,0-7.2,0-10.8,0
	c0.6,14.7,0.4,29.4,0.2,44.1c0,2.2-0.7,4.4-2.1,6.1c-0.1,0.2-0.3,0.3-0.4,0.5c-3,3-6.7,3.7-10.6,2c-3.9-1.7-5.8-4.9-5.5-9.2
	c0.3-4.3,2.8-8,6.7-8.1c5.2-0.1,5.4-3.9,5.7-7.8c0.2-3-1.5-3.2-3.7-3.2C10.5,24.5,1,37,4.1,48.9c2.5,9.6,11.7,16,21.4,15
	c10.1-1.1,17.7-9.2,18-19.4c0.2-7.5,0-15.1,0-23.1c4.3,2.3,8,3.8,12.1,4.7c1.6,0.3,3.2,1,3.8-1.8C60.2,21.5,62.1,17.2,57.4,16z"/>
</svg>
