<?xml version="1.0" encoding="utf-8"?>
<!-- Generator: Adobe Illustrator 26.2.1, SVG Export Plug-In . SVG Version: 6.00 Build 0)  -->
<svg version="1.1" id="Calque_1" xmlns="http://www.w3.org/2000/svg" xmlns:xlink="http://www.w3.org/1999/xlink" x="0px" y="0px"
	 viewBox="0 0 64 64" style="enable-background:new 0 0 64 64;" xml:space="preserve">
<style type="text/css">
	.st0{fill:#FFFFFF;}
</style>
<path class="st0" d="M0.2,52.5c7.2,0.1,12.8-1.1,18.1-5c-3.5-1.6-7.1-2.8-9.3-5.9c-1.9-2.5-2.3-4.2,3.5-3.6
	c-5.1-2.9-8.5-5.4-9.6-9.7c-0.3-1.2-1.9-3.2,1.4-3.6C6.9,24.5,5,22.9,4.5,22C2,17.7,1.6,13.3,4.2,8.3c6.3,6.7,13.4,11.2,22.1,13
	c3.2,0.6,4.9,1.1,5.2-3.5c0.6-9.2,10-15,17.9-11c4.1,2,7.7,3.4,11.9,0.7c0.4,3.1-2,4-3,5.9c1.7,0.7,3.2-1.3,5.4,0
	c-4.6,3.3-5.8,7.8-6.5,13.3C54,51.5,26.2,65.8,3.7,54.7C2.9,54.3,2.1,53.7,0.2,52.5z"/>
</svg>
